/* XPM */
static char *noun_1049055_cc[] = {
/* columns rows colors chars-per-pixel */
"32 32 2 1 ",
"  c black",
". c None",
/* pixels */
"................................",
"................................",
"................................",
"................................",
"................................",
"................................",
"............. ..................",
".............  .................",
"............    ................",
"............    ................",
"............     ...............",
"............      ..............",
"............       .............",
"............        ............",
"............        ............",
"...........          ...........",
"...........           ..........",
"...........            .........",
"...........       ..............",
"...........  ..    .............",
"........... ...    .............",
"...............    .............",
"................   .............",
"................ ...............",
"................................",
"................................",
"................................",
"................................",
"................................",
"................................",
"................................",
"................................"
};
