/* XPM */
static char *noun_974817_cc[] = {
/* columns rows colors chars-per-pixel */
"32 32 2 1 ",
"  c #F44336",
". c None",
/* pixels */
"............        ............",
".........              .........",
".......                  .......",
"......                    ......",
".....                      .....",
"....                        ....",
"...                          ...",
"..          ........          ..",
"..         ..........         ..",
".         ............         .",
".         .....  ......        .",
".        .....    .....        .",
"          ....    .....         ",
"                 .....          ",
"                ......          ",
"               ......           ",
"              ......            ",
"              ....              ",
"             .....              ",
"                                ",
".                              .",
".             ...              .",
".             ....             .",
"..           .....            ..",
"..           .....            ..",
"...           ...            ...",
"....                        ....",
".....                      .....",
"......                    ......",
".......                  .......",
".........              .........",
"............        ............"
};
